<svg width="1280" height="720" xmlns="http://www.w3.org/2000/svg" xmlns:xlink="http://www.w3.org/1999/xlink" overflow="hidden"><defs><clipPath id="clip0"><rect x="0" y="0" width="1280" height="720"/></clipPath></defs><g clip-path="url(#clip0)"><rect x="0" y="0" width="1280" height="720" fill="#FFFFFF" fill-opacity="0"/><rect x="0.500053" y="0.500053" width="1280" height="21" stroke="#43682A" stroke-width="1.33333" stroke-miterlimit="8" fill="#43682A"/><rect x="0.500053" y="699.5" width="1280" height="21" stroke="#43682A" stroke-width="1.33333" stroke-miterlimit="8" fill="#43682A"/><rect x="0.500053" y="21.5001" width="21" height="690" stroke="#43682A" stroke-width="1.33333" stroke-miterlimit="8" fill="#43682A"/><rect x="1259.5" y="12.5001" width="21" height="690" stroke="#43682A" stroke-width="1.33333" stroke-miterlimit="8" fill="#43682A"/><path d="M111.5 123.167C111.5 107.887 123.887 95.5001 139.167 95.5001L272.833 95.5001C288.113 95.5001 300.5 107.887 300.5 123.167L300.5 233.833C300.5 249.113 288.113 261.5 272.833 261.5L139.167 261.5C123.887 261.5 111.5 249.113 111.5 233.833Z" stroke="#43682A" stroke-width="1.33333" stroke-miterlimit="8" fill="#43682A" fill-rule="evenodd"/><path d="M390.5 123.167C390.5 107.887 402.887 95.5001 418.167 95.5001L550.833 95.5001C566.113 95.5001 578.5 107.887 578.5 123.167L578.5 233.833C578.5 249.113 566.113 261.5 550.833 261.5L418.167 261.5C402.887 261.5 390.5 249.113 390.5 233.833Z" stroke="#43682A" stroke-width="1.33333" stroke-miterlimit="8" fill="#43682A" fill-rule="evenodd"/><path d="M669.5 123.167C669.5 107.887 681.887 95.5001 697.167 95.5001L829.833 95.5001C845.113 95.5001 857.5 107.887 857.5 123.167L857.5 233.833C857.5 249.113 845.113 261.5 829.833 261.5L697.167 261.5C681.887 261.5 669.5 249.113 669.5 233.833Z" stroke="#43682A" stroke-width="1.33333" stroke-miterlimit="8" fill="#43682A" fill-rule="evenodd"/><path d="M947.5 123.167C947.5 107.887 959.887 95.5001 975.167 95.5001L1108.83 95.5001C1124.11 95.5001 1136.5 107.887 1136.5 123.167L1136.5 233.833C1136.5 249.113 1124.11 261.5 1108.83 261.5L975.167 261.5C959.887 261.5 947.5 249.113 947.5 233.833Z" stroke="#43682A" stroke-width="1.33333" stroke-miterlimit="8" fill="#43682A" fill-rule="evenodd"/><path d="M111.5 487.167C111.5 471.887 123.887 459.5 139.167 459.5L272.833 459.5C288.113 459.5 300.5 471.887 300.5 487.167L300.5 597.833C300.5 613.113 288.113 625.5 272.833 625.5L139.167 625.5C123.887 625.5 111.5 613.113 111.5 597.833Z" stroke="#43682A" stroke-width="1.33333" stroke-miterlimit="8" fill="#43682A" fill-rule="evenodd"/><path d="M390.5 487.167C390.5 471.887 402.887 459.5 418.167 459.5L550.833 459.5C566.113 459.5 578.5 471.887 578.5 487.167L578.5 597.833C578.5 613.113 566.113 625.5 550.833 625.5L418.167 625.5C402.887 625.5 390.5 613.113 390.5 597.833Z" stroke="#43682A" stroke-width="1.33333" stroke-miterlimit="8" fill="#43682A" fill-rule="evenodd"/><text fill="#FFFFFF" font-family="Arial Rounded MT Bold,Arial Rounded MT Bold_MSFontService,sans-serif" font-weight="700" font-size="48" transform="translate(123.551 195)">Mesa 1<tspan font-size="48" x="279.595" y="-1">Mesa 2</tspan><tspan font-size="48" x="559.189" y="-2">Mesa 3</tspan><tspan font-size="48" x="838.784" y="-2">Mesa 4</tspan><tspan font-size="48" x="-9.91821e-05" y="359">Mesa 5</tspan><tspan font-size="48" x="279.595" y="359">Mesa 6</tspan></text><rect x="746.5" y="482.5" width="534" height="68" stroke="#43682A" stroke-width="1.33333" stroke-miterlimit="8" fill="#43682A"/><rect x="746.5" y="490.5" width="83" height="172" stroke="#43682A" stroke-width="1.33333" stroke-miterlimit="8" fill="#43682A"/><text fill="#FFFFFF" font-family="Arial Rounded MT Bold,Arial Rounded MT Bold_MSFontService,sans-serif" font-weight="700" font-size="48" transform="translate(948.284 534)">Barra</text><path d="M774.5 431C774.5 418.021 785.693 407.5 799.5 407.5 813.307 407.5 824.5 418.021 824.5 431 824.5 443.979 813.307 454.5 799.5 454.5 785.693 454.5 774.5 443.979 774.5 431Z" stroke="#43682A" stroke-width="1.33333" stroke-miterlimit="8" fill="#43682A" fill-rule="evenodd"/><path d="M857.5 431.5C857.5 418.798 868.693 408.5 882.5 408.5 896.307 408.5 907.5 418.798 907.5 431.5 907.5 444.203 896.307 454.5 882.5 454.5 868.693 454.5 857.5 444.203 857.5 431.5Z" stroke="#43682A" stroke-width="1.33333" stroke-miterlimit="8" fill="#43682A" fill-rule="evenodd"/><path d="M939.5 430C939.5 417.021 950.693 406.5 964.5 406.5 978.307 406.5 989.5 417.021 989.5 430 989.5 442.979 978.307 453.5 964.5 453.5 950.693 453.5 939.5 442.979 939.5 430Z" stroke="#43682A" stroke-width="1.33333" stroke-miterlimit="8" fill="#43682A" fill-rule="evenodd"/><path d="M1021.5 430.5C1021.5 417.798 1032.69 407.5 1046.5 407.5 1060.31 407.5 1071.5 417.798 1071.5 430.5 1071.5 443.203 1060.31 453.5 1046.5 453.5 1032.69 453.5 1021.5 443.203 1021.5 430.5Z" stroke="#43682A" stroke-width="1.33333" stroke-miterlimit="8" fill="#43682A" fill-rule="evenodd"/><path d="M1099.5 430C1099.5 417.021 1110.69 406.5 1124.5 406.5 1138.31 406.5 1149.5 417.021 1149.5 430 1149.5 442.979 1138.31 453.5 1124.5 453.5 1110.69 453.5 1099.5 442.979 1099.5 430Z" stroke="#43682A" stroke-width="1.33333" stroke-miterlimit="8" fill="#43682A" fill-rule="evenodd"/><path d="M1182.5 430.5C1182.5 417.798 1193.47 407.5 1207 407.5 1220.53 407.5 1231.5 417.798 1231.5 430.5 1231.5 443.203 1220.53 453.5 1207 453.5 1193.47 453.5 1182.5 443.203 1182.5 430.5Z" stroke="#43682A" stroke-width="1.33333" stroke-miterlimit="8" fill="#43682A" fill-rule="evenodd"/><rect x="0.500053" y="287.5" width="21" height="128" stroke="#FFFFFF" stroke-width="1.33333" stroke-miterlimit="8" fill="#FFFFFF"/><rect x="1259.5" y="261.5" width="21" height="129" stroke="#FFFFFF" stroke-width="1.33333" stroke-miterlimit="8" fill="#FFFFFF"/><path d="M989.5 310 1241.5 310 1241.5 289.5 1282.5 330.5 1241.5 371.5 1241.5 351 989.5 351Z" stroke="#C00000" stroke-width="1.33333" stroke-miterlimit="8" fill="#C00000" fill-rule="evenodd"/><text fill="#FFFFFF" font-family="Calibri,Calibri_MSFontService,sans-serif" font-weight="700" font-size="24" transform="translate(1019.69 338)">SALIDA EMERGENCIA</text><path d="M4.50005 353.5 43.5 314.5 43.5 334 222.5 334 222.5 314.5 261.5 353.5 222.5 392.5 222.5 373 43.5 373 43.5 392.5Z" stroke="#FFC000" stroke-width="1.33333" stroke-miterlimit="8" fill="#FFC000" fill-rule="evenodd"/><text font-family="Calibri,Calibri_MSFontService,sans-serif" font-weight="700" font-size="24" transform="translate(38.1281 360)">ENTRADA / SALIDA</text></g></svg>